<svg width="178" height="181" viewBox="0 0 178 181" fill="none" xmlns="http://www.w3.org/2000/svg">
<path d="M41.0184 139.045C41.0184 139.045 -3.19393 138.745 3.81458 76.8246C3.81458 76.8246 3.50584 47.7846 35.2243 37.4146C35.2243 37.4146 41.3271 1.5646 91.9407 3.04459C91.9407 3.04459 131.882 2.45459 139.817 35.6346C139.817 35.6346 176.413 40.6746 174.88 91.9346C174.88 91.9346 173.295 132.825 138.561 139.045C103.827 145.265 41.0184 139.045 41.0184 139.045Z" stroke="#282B67" stroke-width="6" stroke-miterlimit="10"/>
<path d="M48.5518 26.7745C41.3786 31.5745 35.1625 37.6245 30.2226 44.5845C36.3255 36.7145 47.5638 27.5745 48.5518 26.7745Z" fill="#282A67"/>
<path d="M111.793 126.055C113.965 124.625 115.879 123.255 117.577 121.935C109.56 127.635 99.6799 131.005 88.9974 131.005C81.9683 131.005 75.2891 129.535 69.2583 126.915C68.085 130.155 52.9462 143.455 52.9462 143.455C43.9926 139.145 30.1402 122.825 30.1402 122.825C29.8521 119.235 45.0218 107.115 46.267 106.135C42.6033 99.5045 40.5244 91.9345 40.5244 83.8945C40.5244 77.0945 42.0166 70.6345 44.6821 64.8045C44.6821 64.8045 44.6821 64.8045 44.6719 64.8045C41.8314 64.3845 27.6291 49.1245 27.413 48.8945C21.2175 59.1745 17.6464 71.1245 17.6464 83.8945C17.6464 122.185 49.5912 153.225 88.9974 153.225C103.55 153.225 117.073 148.985 128.362 141.715C123.824 140.455 111.793 126.055 111.793 126.055Z" fill="#282A67"/>
<path d="M132.366 61.4846C130.637 59.0646 128.99 56.9846 127.415 55.1746C133.714 63.1246 137.481 73.0746 137.481 83.8946C137.481 90.9846 135.865 97.6945 132.973 103.725C132.983 103.725 132.994 103.725 133.004 103.725C135.741 104.135 149.059 118.345 150.191 119.555C156.633 109.135 160.348 96.9346 160.348 83.8946C160.348 69.7646 155.985 56.6246 148.513 45.6646C147.515 49.8446 132.366 61.4846 132.366 61.4846Z" fill="#282A67"/>
<path d="M65.8826 42.4646C72.7574 38.8346 80.6304 36.7746 88.9973 36.7746C96.3043 36.7746 103.241 38.3546 109.457 41.1746C110.62 38.0246 125.769 25.0646 125.769 25.0646C132.613 28.2746 142.307 38.3046 146.506 42.8646C133.518 25.7046 112.596 14.5646 88.9973 14.5646C74.0232 14.5646 60.1297 19.0546 48.6444 26.7246C52.514 26.4546 65.8826 42.4646 65.8826 42.4646Z" fill="#282A67"/>
<path d="M133.333 138.195C137.501 134.985 141.278 131.335 144.613 127.305C140.949 131.375 136.523 135.415 133.333 138.195Z" fill="#282A67"/>
<path d="M127.416 55.1745C115.941 41.9345 108.994 43.7845 109.385 41.4045C109.395 41.3345 109.426 41.2545 109.457 41.1745C103.241 38.3545 96.3147 36.7745 88.9974 36.7745C80.6304 36.7745 72.7574 38.8345 65.8827 42.4645C44.6204 56.4345 47.5124 65.2045 44.6719 64.7945C42.0064 70.6345 40.5141 77.0845 40.5141 83.8845C40.5141 91.9345 42.593 99.5045 46.2568 106.125C46.3082 106.085 46.3494 106.055 46.3494 106.055C60.7369 126.735 69.7729 123.895 69.3304 126.675C69.3201 126.745 69.2892 126.825 69.2583 126.915C75.2891 129.535 81.9683 131.005 88.9974 131.005C99.6903 131.005 109.57 127.635 117.577 121.935C132.448 110.425 130.462 103.405 132.973 103.725C135.855 97.6945 137.481 90.9845 137.481 83.8945C137.481 73.0845 133.724 63.1245 127.416 55.1745Z" fill="#4297D3"/>
<path d="M27.4027 48.8745L27.413 48.8845C28.2981 47.4145 29.2346 45.9845 30.2226 44.5845C29.0596 46.0845 28.0819 47.5345 27.4027 48.8745Z" fill="#DCD2E6"/>
<path d="M48.6347 26.7145C48.6347 26.7145 48.6036 26.7448 48.5517 26.775C48.5828 26.7548 48.6139 26.7347 48.645 26.7145H48.6347Z" fill="#DCD2E6"/>
<path d="M44.6718 64.7946C49.0252 55.2746 56.5173 47.4146 65.8929 42.4646C65.8929 42.4646 52.5243 26.4546 48.6547 26.7146C48.6238 26.7346 48.5929 26.7546 48.562 26.7746C47.574 27.5746 36.3357 36.7146 30.2329 44.5846C29.2449 45.9846 28.3083 47.4146 27.4233 48.8846C27.6188 49.1146 41.8314 64.3746 44.6718 64.7946Z" fill="#DCD2E6"/>
<path d="M65.8827 42.4646C56.5174 47.4146 49.0252 55.2746 44.6719 64.7946C47.5226 65.2146 44.6204 56.4346 65.8827 42.4646Z" fill="#DCD2E6"/>
<path d="M46.2465 106.135C45.0115 107.115 29.8418 119.235 30.1197 122.825C30.1197 122.825 43.9721 139.145 52.9257 143.455C52.9257 143.455 68.0644 130.155 69.2377 126.915C59.4196 122.655 51.3202 115.305 46.2465 106.135Z" fill="#DCD2E6"/>
<path d="M46.3391 106.065C46.3391 106.065 46.2979 106.095 46.2465 106.135C51.3099 115.305 59.4196 122.655 69.248 126.915C69.2788 126.835 69.3097 126.745 69.32 126.675C69.7625 123.905 60.7266 126.745 46.3391 106.065Z" fill="#DCD2E6"/>
<path d="M150.191 119.555C148.513 122.265 146.64 124.855 144.613 127.305C147.011 124.645 149.089 121.975 150.273 119.645C150.273 119.645 150.242 119.605 150.191 119.555Z" fill="#DCD2E6"/>
<path d="M129.042 141.805C129.042 141.805 130.801 140.395 133.333 138.195C131.728 139.435 130.071 140.615 128.362 141.715C128.609 141.785 128.846 141.825 129.042 141.805Z" fill="#DCD2E6"/>
<path d="M133.004 103.725C132.994 103.725 132.983 103.725 132.973 103.725C129.494 110.995 124.174 117.255 117.577 121.935C115.879 123.255 113.965 124.625 111.793 126.055C111.793 126.055 123.824 140.455 128.362 141.715C130.071 140.615 131.728 139.435 133.333 138.195C136.534 135.415 140.949 131.375 144.613 127.305C146.64 124.855 148.513 122.265 150.191 119.555C149.069 118.345 135.741 104.135 133.004 103.725Z" fill="#DCD2E6"/>
<path d="M117.577 121.935C124.174 117.255 129.494 110.985 132.973 103.725C130.462 103.415 132.448 110.435 117.577 121.935Z" fill="#DCD2E6"/>
<path d="M148.575 45.1546C148.575 45.1546 147.793 44.2646 146.506 42.8546C147.206 43.7746 147.875 44.7046 148.523 45.6646C148.565 45.4846 148.585 45.3146 148.575 45.1546Z" fill="#DCD2E6"/>
<path d="M125.769 25.0645C125.769 25.0645 110.609 38.0245 109.457 41.1745C116.548 44.3845 122.702 49.2145 127.426 55.1745C128.99 56.9845 130.647 59.0645 132.376 61.4845C132.376 61.4845 147.525 49.8445 148.534 45.6645C147.885 44.7145 147.216 43.7745 146.517 42.8545C142.307 38.3045 132.613 28.2745 125.769 25.0645Z" fill="#DCD2E6"/>
<path d="M127.416 55.1746C122.692 49.2146 116.537 44.3946 109.447 41.1746C109.416 41.2546 109.385 41.3346 109.375 41.4046C108.994 43.7846 115.94 41.9346 127.416 55.1746Z" fill="#DCD2E6"/>
<path d="M4.20567 145.825C4.20567 145.825 3.06331 161.825 13.1284 162.605C23.1935 163.385 7.40633 166.385 1.00501 162.605C1.00501 162.605 0.42869 178.045 11.6361 178.935C16.1129 179.285 20.7647 180.505 25.2621 180.155C28.0305 179.945 29.9036 178.465 30.7577 175.925C31.2209 174.545 31.19 173.205 32.0853 171.985C33.0322 170.695 34.5142 169.785 35.8726 168.955C39.7525 166.595 44.2087 165.095 48.5826 163.865C63.495 159.675 79.4262 158.735 94.8738 159.175C103.745 159.425 112.606 160.205 121.385 161.425C126.273 162.105 131.141 162.925 135.978 163.875C138.469 164.365 140.99 164.705 143.491 165.205C145.57 165.615 149.038 166.005 150.551 167.515C151.487 168.445 155.038 174.395 153.669 175.495C152.3 176.605 177 176.385 177 159.715C177 159.715 166.019 164.605 161.676 159.935C157.333 155.265 168.54 158.825 170.136 145.825C169.981 147.105 165.216 149.095 164.228 149.495C158.98 151.645 155.213 149.735 150.829 146.945C146.27 144.045 141.124 142.135 135.988 140.455C123.896 136.495 111.073 134.775 98.3523 134.565C78.8396 134.245 59.3784 137.515 40.7096 142.875C37.7148 143.735 34.7303 144.655 31.7663 145.615C29.7903 146.255 27.6497 147.035 25.8796 148.275C23.6154 149.855 22.5554 151.555 19.4988 151.725C14.0341 152.035 8.50752 148.665 4.20567 145.825Z" fill="#3C96D2" stroke="#282A67" stroke-miterlimit="10"/>
<path d="M31.7663 172.705C28.5656 173.595 31.7663 155.595 31.7663 155.595" stroke="#282A67" stroke-miterlimit="10"/>
<path d="M150.489 149.995C150.489 149.995 153.69 167.995 150.489 167.105" stroke="#282A67" stroke-miterlimit="10"/>
<path d="M28.1231 179.505C28.1231 179.505 37.3752 180.015 35.8109 168.975" stroke="#282A67" stroke-miterlimit="10"/>
<path d="M153.824 175.695C153.824 175.695 146.362 176.145 147.618 166.375" stroke="#282A67" stroke-miterlimit="10"/>
<path d="M41.1419 158.335C41.0081 158.375 40.8846 158.365 40.7611 158.315C40.6376 158.265 40.5552 158.165 40.4935 158.055C40.4832 158.025 40.4626 157.995 40.4523 157.975C40.3185 157.625 39.9892 156.785 39.4643 155.465C38.9395 154.145 38.5278 153.065 38.2191 152.225C38.1676 152.095 38.1779 151.965 38.25 151.835C38.322 151.705 38.4249 151.625 38.569 151.565C38.7131 151.515 38.8572 151.515 38.9909 151.575C39.1247 151.635 39.2174 151.725 39.2688 151.855C39.4952 152.495 39.7216 153.095 39.948 153.685C40.1745 154.265 40.4215 154.905 40.689 155.595C40.9566 156.295 41.1625 156.835 41.3065 157.235C41.6564 157.125 42.1916 156.935 42.912 156.685C43.6324 156.435 44.1882 156.255 44.5587 156.145C44.7027 156.105 44.8365 156.115 44.96 156.175C45.0835 156.245 45.1761 156.335 45.2173 156.475C45.2585 156.605 45.2482 156.735 45.1761 156.855C45.1041 156.975 45.0012 157.055 44.8571 157.105C44.4969 157.215 43.8691 157.425 42.9943 157.725C42.1299 158.015 41.5124 158.225 41.1419 158.335Z" fill="white"/>
<path d="M46.8639 156.395C46.7301 156.435 46.5963 156.425 46.4728 156.355C46.3391 156.285 46.267 156.155 46.2156 156.065C46.1744 156.005 46.1023 155.925 46.0818 155.845C45.948 155.415 45.7627 154.785 45.4951 153.965C45.2276 153.155 45.0526 152.595 44.9703 152.305C44.9394 152.195 44.8674 152.005 44.7747 151.735C44.6821 151.465 44.5998 151.215 44.5277 150.985C44.4557 150.755 44.4145 150.525 44.3837 150.315C44.3734 150.225 44.3837 150.125 44.4351 150.035C44.4866 149.945 44.5483 149.875 44.6409 149.815C44.713 149.715 44.8056 149.635 44.9394 149.585C45.4437 149.415 46.2053 149.185 47.1727 148.895C48.1401 148.615 48.809 148.425 49.1692 148.335C49.3133 148.295 49.4574 148.305 49.5912 148.375C49.725 148.445 49.8073 148.545 49.8382 148.675C49.8793 148.815 49.8587 148.935 49.7764 149.055C49.6941 149.175 49.5912 149.255 49.4368 149.295C49.0663 149.395 48.4282 149.575 47.5534 149.825C46.6684 150.085 45.6186 150.305 45.5157 150.435C45.4951 150.465 45.5981 150.775 45.7319 151.175C45.8656 151.575 45.9583 151.845 46.0097 151.995C46.0612 152.155 46.0818 152.235 46.1332 152.385C46.4625 152.265 46.8227 152.145 47.2138 152.035C47.5946 151.925 48.0371 151.805 48.5311 151.665C49.0251 151.535 49.3853 151.435 49.622 151.375C49.7661 151.335 49.8999 151.345 50.0337 151.415C50.1572 151.485 50.2498 151.585 50.2807 151.715C50.3219 151.845 50.3013 151.975 50.2292 152.095C50.1572 152.215 50.044 152.295 49.8999 152.335C49.6529 152.405 49.2927 152.495 48.7987 152.625C48.315 152.755 47.8725 152.875 47.502 152.985C47.1212 153.095 46.761 153.215 46.4317 153.335C46.7198 154.235 46.9154 154.885 47.0389 155.275C48.7061 154.805 49.9925 154.445 50.8879 154.195C51.032 154.155 51.1658 154.165 51.2995 154.225C51.423 154.285 51.5157 154.385 51.5465 154.525C51.5877 154.655 51.5671 154.785 51.5054 154.905C51.4333 155.025 51.3304 155.105 51.1863 155.145C50.2704 155.445 48.7987 155.825 46.8639 156.395Z" fill="white"/>
<path d="M53.7078 154.385C53.2755 154.305 52.905 154.135 52.5963 153.885C52.2876 153.635 52.0817 153.305 51.9685 152.905C51.9274 152.755 51.9479 152.615 52.0303 152.495C52.1126 152.375 52.2258 152.295 52.3699 152.255C52.4831 152.225 52.586 152.235 52.6992 152.275C52.8021 152.315 52.8845 152.395 52.9462 152.525C53.2652 153.335 53.9445 153.605 54.9839 153.345C55.4882 153.225 55.8484 153.025 56.0851 152.755C56.3218 152.485 56.4042 152.185 56.3218 151.855C56.2704 151.665 56.1366 151.515 55.8999 151.435C55.6632 151.355 55.3647 151.295 54.9839 151.275C54.8398 151.265 54.7781 151.255 54.634 151.245C53.893 151.195 53.3476 151.145 53.0183 151.085C52.5346 150.995 52.1435 150.845 51.8553 150.625C51.5672 150.405 51.3716 150.115 51.2687 149.755C51.1761 149.435 51.2069 149.095 51.351 148.735C51.4951 148.375 51.7524 148.055 52.1126 147.775C52.4728 147.485 52.9051 147.285 53.4196 147.155C53.9445 147.025 54.4385 147.005 54.9016 147.085C55.3544 147.165 55.7352 147.325 56.0337 147.565C56.3321 147.805 56.5174 148.095 56.5997 148.425C56.6409 148.595 56.6203 148.735 56.5379 148.855C56.4556 148.975 56.3424 149.045 56.1983 149.085C56.0542 149.115 55.9307 149.095 55.8072 149.025C55.6837 148.955 55.6014 148.835 55.5705 148.685C55.5294 148.525 55.4162 148.385 55.2309 148.265C55.0354 148.145 54.809 148.075 54.5208 148.045C54.2429 148.015 53.9445 148.035 53.6357 148.105C53.1109 148.235 52.7404 148.415 52.5346 148.645C52.3184 148.875 52.2464 149.135 52.3184 149.425C52.3493 149.585 52.4419 149.705 52.586 149.795C52.7301 149.885 52.9359 149.965 53.2035 150.025C53.4505 150.085 53.7181 150.125 53.9959 150.155C54.2738 150.185 54.634 150.215 55.0868 150.245C55.694 150.285 56.1983 150.415 56.5894 150.615C56.9805 150.815 57.2378 151.155 57.351 151.595C57.4539 152.015 57.4024 152.405 57.2172 152.785C57.0319 153.165 56.7541 153.485 56.3733 153.755C55.9925 154.025 55.5705 154.215 55.0971 154.335C54.6031 154.445 54.14 154.465 53.7078 154.385Z" fill="white"/>
<path d="M61.2823 149.355C60.9839 148.075 60.7883 147.025 60.6957 146.205C60.6854 146.065 60.7266 145.945 60.8192 145.835C60.9118 145.725 61.0353 145.655 61.1897 145.645C61.2617 145.635 61.3338 145.645 61.4058 145.665C62.2188 145.345 62.9701 145.175 63.67 145.135C64.8946 145.075 65.7488 145.445 66.2428 146.225C66.4487 146.605 66.5516 146.925 66.5619 147.185C66.5722 147.445 66.531 147.685 66.4383 147.905C66.3457 148.125 66.2016 148.315 66.0267 148.475C65.8517 148.635 65.6665 148.765 65.471 148.875C65.2754 148.985 65.0696 149.075 64.8432 149.155C64.1536 149.415 63.3612 149.585 62.4658 149.655C62.754 150.905 62.9289 151.695 63.001 152.035C63.0319 152.175 63.001 152.295 62.9187 152.415C62.8363 152.525 62.7231 152.595 62.579 152.625C62.4349 152.655 62.3012 152.625 62.188 152.555C62.0645 152.475 61.9924 152.375 61.9718 152.235C61.941 152.165 61.7146 151.205 61.2823 149.355ZM62.3835 148.655C63.1657 148.595 63.8552 148.455 64.4521 148.225C65.1519 147.955 65.5018 147.635 65.4812 147.235C65.4812 147.145 65.4195 146.975 65.296 146.735C65.0181 146.295 64.483 146.085 63.7111 146.125C63.1554 146.155 62.5379 146.295 61.8586 146.555C61.941 147.135 62.0645 147.845 62.2497 148.685C62.2909 148.675 62.3321 148.665 62.3835 148.655Z" fill="white"/>
<path d="M66.8501 146.135C66.7883 146.025 66.7677 145.905 66.8089 145.775C66.953 145.235 67.1074 144.635 67.272 143.995C67.3029 143.875 67.3852 143.785 67.4984 143.715C67.6219 143.645 67.7454 143.625 67.8689 143.655C67.9924 143.675 68.1056 143.745 68.1776 143.855C68.2497 143.965 68.2703 144.075 68.2394 144.185C68.0336 144.915 67.941 145.285 67.7454 146.015C67.7145 146.125 67.6322 146.215 67.519 146.285C67.3955 146.355 67.272 146.375 67.1485 146.345C67.0147 146.325 66.9118 146.245 66.8501 146.135Z" fill="white"/>
<path d="M72.8396 150.825C72.747 150.935 72.6235 150.995 72.4794 151.015C72.3353 151.035 72.2015 150.995 72.0986 150.915C71.9854 150.825 71.9237 150.715 71.9031 150.575C71.8722 150.345 71.7487 149.405 71.512 147.775C71.337 146.585 71.2341 145.655 71.193 144.995C70.4005 145.095 69.7418 145.185 69.2067 145.285C69.0523 145.315 68.9185 145.285 68.795 145.205C68.6715 145.125 68.5995 145.015 68.5686 144.885C68.5377 144.755 68.5686 144.625 68.6612 144.515C68.7539 144.405 68.8671 144.325 69.0111 144.305C69.6286 144.195 70.4931 144.075 71.6149 143.935C72.7264 143.805 73.6012 143.705 74.2187 143.625C74.373 143.605 74.5068 143.645 74.6303 143.725C74.7538 143.805 74.8156 143.915 74.8361 144.055C74.8567 144.195 74.8156 144.315 74.7229 144.425C74.6303 144.535 74.5068 144.595 74.3627 144.615C73.8585 144.675 73.1586 144.755 72.2839 144.865C72.3147 145.505 72.4074 146.425 72.572 147.635C72.7984 149.275 72.9219 150.235 72.9528 150.475C72.9631 150.595 72.9322 150.715 72.8396 150.825Z" fill="white"/>
<path d="M76.2153 150.475C76.1021 150.385 76.03 150.275 76.0095 150.145C75.9889 150.005 76.0198 149.885 76.1124 149.775C76.205 149.665 76.3182 149.605 76.452 149.575C76.5446 149.565 76.5858 149.555 76.6784 149.545C76.4623 147.485 76.277 145.765 76.1226 144.405C76.0506 144.415 76.0198 144.415 75.9477 144.425C75.7933 144.445 75.6595 144.405 75.5463 144.315C75.4331 144.225 75.3714 144.115 75.3508 143.975C75.3405 143.835 75.3817 143.715 75.4743 143.615C75.5772 143.515 75.7007 143.445 75.8551 143.435C76.2256 143.405 76.6887 143.375 77.2135 143.325C77.3576 143.315 77.4914 143.355 77.6046 143.435C77.7178 143.525 77.7796 143.635 77.8002 143.775C77.8208 143.915 77.7693 144.035 77.6664 144.135C77.5635 144.245 77.44 144.305 77.2856 144.315C77.2547 144.315 77.2341 144.315 77.2033 144.325C77.3474 145.685 77.5223 147.385 77.7179 149.445C77.8002 149.435 77.8413 149.435 77.9237 149.425C78.0677 149.415 78.2015 149.445 78.3147 149.535C78.4279 149.625 78.4897 149.735 78.5 149.875C78.5103 150.015 78.4691 150.135 78.3868 150.245C78.2942 150.355 78.1707 150.405 78.0266 150.425C77.4914 150.475 77.0077 150.525 76.5961 150.585C76.4623 150.595 76.3285 150.565 76.2153 150.475Z" fill="white"/>
<path d="M82.3387 149.935C82.2358 150.035 82.1226 150.085 81.9682 150.095C81.8241 150.105 81.7006 150.065 81.5977 149.965C81.4948 149.875 81.4331 149.755 81.4228 149.615C81.4125 149.385 81.3404 148.435 81.2066 146.795C81.114 145.595 81.0625 144.655 81.0728 143.995C80.2804 144.045 79.6115 144.095 79.0763 144.165C78.9219 144.185 78.7881 144.145 78.6749 144.065C78.5617 143.975 78.4897 143.865 78.4691 143.735C78.4485 143.595 78.4897 143.475 78.5823 143.365C78.6749 143.255 78.7984 143.195 78.9425 143.175C79.56 143.105 80.4348 143.035 81.5565 142.965C82.668 142.905 83.5531 142.855 84.1706 142.815C84.325 142.805 84.4588 142.845 84.572 142.935C84.6852 143.025 84.7469 143.135 84.7469 143.275C84.7572 143.415 84.7057 143.535 84.6131 143.645C84.5205 143.745 84.3867 143.805 84.2426 143.815C83.7281 143.845 83.0282 143.885 82.1535 143.935C82.1432 144.575 82.1843 145.505 82.2667 146.715C82.3902 148.365 82.4519 149.325 82.4622 149.565C82.4828 149.715 82.4416 149.845 82.3387 149.935Z" fill="white"/>
<path d="M86.8979 149.695C86.4965 149.525 86.1672 149.285 85.9305 148.965C85.6938 148.655 85.56 148.285 85.5394 147.875C85.5291 147.715 85.5806 147.585 85.6835 147.485C85.7864 147.385 85.9202 147.335 86.0643 147.325C86.1775 147.325 86.2804 147.355 86.373 147.415C86.4656 147.475 86.5274 147.575 86.5583 147.705C86.692 148.565 87.2889 148.965 88.349 148.945C88.8635 148.935 89.2649 148.815 89.5531 148.605C89.8413 148.385 89.9853 148.115 89.9853 147.775C89.9853 147.575 89.8824 147.405 89.6663 147.275C89.4605 147.145 89.1723 147.025 88.8224 146.925C88.6886 146.885 88.6269 146.865 88.4931 146.825C87.783 146.625 87.2684 146.455 86.9596 146.325C86.5068 146.135 86.1672 145.905 85.9408 145.635C85.7143 145.365 85.5909 145.035 85.5703 144.655C85.56 144.325 85.6526 143.995 85.879 143.685C86.0951 143.365 86.4142 143.105 86.8258 142.905C87.2375 142.705 87.7109 142.595 88.2255 142.585C88.7709 142.575 89.2546 142.655 89.6766 142.825C90.0985 142.995 90.4381 143.235 90.6646 143.535C90.9013 143.835 91.0145 144.155 91.0248 144.495C91.0248 144.665 90.9733 144.805 90.8704 144.905C90.7675 145.005 90.644 145.055 90.4896 145.055C90.3455 145.055 90.222 145.005 90.1191 144.915C90.0162 144.815 89.9647 144.695 89.9647 144.535C89.9647 144.365 89.8824 144.205 89.728 144.055C89.5737 143.905 89.3575 143.775 89.09 143.685C88.8224 143.595 88.5342 143.555 88.2255 143.555C87.6903 143.565 87.2889 143.665 87.0317 143.845C86.7744 144.025 86.6406 144.265 86.6406 144.565C86.6406 144.725 86.7023 144.865 86.8155 144.975C86.939 145.095 87.1243 145.215 87.3713 145.325C87.5977 145.435 87.855 145.535 88.1123 145.625C88.3696 145.715 88.7195 145.825 89.1517 145.945C89.728 146.115 90.1911 146.345 90.5308 146.635C90.8704 146.925 91.0453 147.295 91.0453 147.755C91.0453 148.185 90.9219 148.555 90.6543 148.885C90.3867 149.215 90.0471 149.465 89.6251 149.655C89.2032 149.835 88.7401 149.935 88.2563 149.945C87.7521 149.945 87.2992 149.865 86.8979 149.695Z" fill="white"/>
<path d="M102.212 149.995C102.098 150.085 101.975 150.115 101.831 150.105C101.687 150.085 101.563 150.025 101.471 149.925C101.378 149.815 101.337 149.695 101.357 149.555C101.388 149.365 101.46 148.565 101.543 147.175C101.625 145.785 101.666 144.985 101.687 144.785C101.09 145.415 100.4 146.235 99.6285 147.235C99.5461 147.355 99.4329 147.425 99.2786 147.435C99.1345 147.455 99.0007 147.425 98.8875 147.345C98.8772 147.335 98.8772 147.335 98.8669 147.335C98.8052 147.295 98.7537 147.245 98.7125 147.185C98.4347 146.785 97.951 146.165 97.2614 145.345C96.9938 145.025 96.8601 144.865 96.5822 144.545C96.5925 145.045 96.5822 145.615 96.5616 146.265C96.5513 146.585 96.5307 147.085 96.4999 147.775C96.469 148.465 96.4484 148.985 96.4381 149.335C96.4381 149.475 96.3764 149.595 96.2735 149.685C96.1705 149.775 96.047 149.825 95.9029 149.825C95.7589 149.825 95.6354 149.765 95.5325 149.675C95.4295 149.585 95.3884 149.455 95.3884 149.315C95.3987 148.965 95.409 148.445 95.4398 147.755C95.4707 147.065 95.481 146.565 95.4913 146.235C95.5222 144.985 95.5016 143.985 95.4295 143.225C95.4193 143.085 95.4604 142.965 95.553 142.855C95.6457 142.755 95.7794 142.695 95.9338 142.685C96.0059 142.685 96.0882 142.695 96.1397 142.715C96.2837 142.745 96.4484 142.795 96.5513 142.915C97.1791 143.645 97.4981 144.005 98.1156 144.735C98.5479 145.255 98.9081 145.705 99.1962 146.085C100.215 144.765 101.121 143.775 101.893 143.115C101.923 143.095 101.954 143.065 101.985 143.055C102.109 142.965 102.243 142.925 102.397 142.945C102.551 142.965 102.675 143.025 102.767 143.125C102.86 143.235 102.901 143.355 102.881 143.495C102.798 144.195 102.726 145.225 102.634 146.605C102.551 147.975 102.469 149.005 102.397 149.675C102.387 149.795 102.325 149.905 102.212 149.995Z" fill="white"/>
<path d="M105.649 150.125C105.361 149.965 105.124 149.775 104.929 149.555C104.733 149.335 104.568 149.095 104.435 148.835C104.301 148.565 104.208 148.295 104.157 148.015C104.116 147.735 104.085 147.445 104.085 147.155C104.085 146.865 104.116 146.575 104.167 146.305C104.239 145.965 104.352 145.635 104.496 145.315C104.651 144.995 104.846 144.705 105.083 144.435C105.32 144.165 105.598 143.935 105.906 143.755C106.215 143.575 106.565 143.455 106.956 143.405C107.347 143.345 107.738 143.335 108.129 143.355C108.304 143.365 108.489 143.385 108.675 143.425C109.025 143.495 109.313 143.585 109.519 143.675C110.002 143.885 110.393 144.165 110.682 144.515C110.97 144.865 111.165 145.245 111.258 145.645C111.35 146.045 111.371 146.455 111.32 146.885C111.268 147.315 111.165 147.725 111.001 148.125C110.836 148.525 110.62 148.895 110.352 149.245C110.085 149.595 109.745 149.885 109.354 150.115C108.963 150.345 108.52 150.495 108.047 150.555C107.574 150.615 107.08 150.595 106.596 150.485C106.256 150.415 105.937 150.295 105.649 150.125ZM108.726 149.285C109.333 148.975 109.776 148.455 110.043 147.735C110.208 147.295 110.28 146.875 110.27 146.465C110.26 146.055 110.157 145.685 109.941 145.365C109.735 145.035 109.457 144.795 109.128 144.625C108.973 144.545 108.839 144.495 108.747 144.465C108.654 144.435 108.531 144.415 108.397 144.395C108.284 144.385 108.17 144.365 108.037 144.345C107.903 144.325 107.718 144.315 107.491 144.325C107.08 144.335 106.627 144.525 106.153 144.915C105.68 145.295 105.381 145.825 105.237 146.495C105.145 146.965 105.124 147.405 105.206 147.825C105.278 148.245 105.464 148.595 105.752 148.875C106.04 149.145 106.411 149.355 106.863 149.475C107.501 149.665 108.129 149.595 108.726 149.285Z" fill="white"/>
<path d="M112.452 148.645C112.462 148.225 112.524 147.725 112.616 147.165C112.678 146.795 112.781 146.305 112.915 145.685C113.049 145.065 113.131 144.655 113.162 144.475C113.182 144.335 113.254 144.225 113.378 144.145C113.501 144.065 113.635 144.035 113.79 144.055C113.944 144.075 114.057 144.145 114.15 144.255C114.232 144.365 114.273 144.495 114.253 144.635C114.222 144.805 114.129 145.215 113.995 145.845C113.862 146.475 113.759 146.965 113.687 147.335C113.594 147.865 113.543 148.305 113.522 148.675C113.512 149.085 113.543 149.365 113.625 149.525C113.82 149.885 114.119 150.155 114.52 150.325C114.922 150.495 115.344 150.545 115.776 150.465C116.208 150.385 116.568 150.205 116.856 149.905C117.32 149.435 117.649 148.755 117.824 147.845C117.886 147.515 117.958 147.075 118.019 146.535C118.102 145.835 118.143 145.385 118.163 145.225C118.184 145.085 118.256 144.975 118.38 144.895C118.503 144.815 118.637 144.785 118.781 144.805C118.935 144.825 119.059 144.895 119.141 145.005C119.234 145.115 119.265 145.245 119.244 145.375C119.223 145.525 119.162 145.965 119.079 146.645C119.007 147.215 118.946 147.685 118.874 148.045C118.657 149.135 118.235 149.985 117.628 150.595C117.299 150.925 116.898 151.165 116.424 151.315C115.951 151.465 115.477 151.515 115.014 151.475C114.551 151.435 114.098 151.285 113.676 151.025C113.244 150.765 112.915 150.415 112.678 149.965C112.524 149.655 112.441 149.215 112.452 148.645Z" fill="white"/>
<path d="M120.603 152.225C120.242 151.975 119.985 151.665 119.82 151.305C119.656 150.945 119.615 150.565 119.687 150.155C119.717 149.995 119.789 149.885 119.923 149.805C120.047 149.725 120.191 149.705 120.335 149.735C120.448 149.755 120.541 149.805 120.623 149.885C120.705 149.965 120.736 150.075 120.736 150.215C120.675 151.075 121.158 151.605 122.208 151.805C122.712 151.905 123.134 151.875 123.464 151.725C123.803 151.575 123.999 151.335 124.071 151.015C124.112 150.815 124.05 150.635 123.875 150.455C123.7 150.285 123.453 150.105 123.124 149.935C123 149.865 122.939 149.835 122.825 149.765C122.177 149.415 121.714 149.145 121.436 148.945C121.045 148.665 120.757 148.365 120.592 148.045C120.428 147.735 120.386 147.385 120.448 147.015C120.51 146.685 120.685 146.395 120.973 146.135C121.261 145.875 121.632 145.685 122.084 145.575C122.537 145.465 123.021 145.465 123.525 145.565C124.06 145.665 124.513 145.855 124.894 146.115C125.275 146.375 125.542 146.675 125.707 147.025C125.872 147.365 125.913 147.705 125.841 148.035C125.8 148.205 125.717 148.325 125.594 148.395C125.47 148.465 125.337 148.485 125.182 148.455C125.038 148.425 124.935 148.355 124.853 148.235C124.771 148.125 124.75 147.985 124.791 147.825C124.822 147.665 124.781 147.485 124.668 147.305C124.544 147.115 124.369 146.955 124.122 146.805C123.886 146.655 123.608 146.555 123.299 146.495C122.774 146.395 122.362 146.405 122.064 146.515C121.776 146.635 121.591 146.845 121.518 147.135C121.477 147.295 121.508 147.435 121.601 147.575C121.693 147.715 121.848 147.875 122.064 148.035C122.259 148.185 122.486 148.335 122.723 148.485C122.959 148.625 123.278 148.805 123.669 149.025C124.194 149.315 124.596 149.635 124.863 149.995C125.131 150.355 125.213 150.745 125.11 151.195C125.018 151.615 124.801 151.955 124.472 152.215C124.143 152.475 123.741 152.655 123.289 152.745C122.825 152.835 122.362 152.825 121.879 152.735C121.374 152.655 120.952 152.485 120.603 152.225Z" fill="white"/>
<path d="M126.829 153.515C126.479 153.245 126.232 152.935 126.088 152.565C125.934 152.205 125.913 151.815 126.006 151.415C126.047 151.255 126.129 151.145 126.253 151.075C126.386 151.005 126.52 150.985 126.664 151.015C126.777 151.035 126.87 151.095 126.942 151.185C127.014 151.275 127.045 151.375 127.035 151.515C126.932 152.375 127.405 152.915 128.445 153.165C128.949 153.285 129.361 153.275 129.711 153.145C130.05 153.005 130.266 152.785 130.349 152.455C130.4 152.265 130.338 152.075 130.174 151.895C130.009 151.715 129.762 151.525 129.443 151.345C129.319 151.275 129.268 151.235 129.144 151.165C128.506 150.785 128.054 150.495 127.786 150.295C127.405 149.995 127.138 149.685 126.983 149.365C126.829 149.045 126.798 148.695 126.891 148.325C126.963 147.995 127.148 147.715 127.446 147.465C127.745 147.215 128.126 147.045 128.578 146.955C129.031 146.865 129.515 146.875 130.03 146.995C130.554 147.125 131.007 147.325 131.378 147.595C131.748 147.875 132.006 148.185 132.15 148.535C132.294 148.885 132.325 149.225 132.242 149.555C132.201 149.725 132.108 149.845 131.985 149.905C131.861 149.965 131.717 149.985 131.573 149.955C131.429 149.915 131.326 149.845 131.254 149.725C131.182 149.605 131.162 149.465 131.203 149.315C131.244 149.155 131.213 148.975 131.1 148.785C130.987 148.595 130.812 148.425 130.575 148.265C130.338 148.105 130.071 147.995 129.762 147.925C129.237 147.805 128.825 147.795 128.527 147.895C128.229 148.005 128.043 148.205 127.951 148.485C127.91 148.635 127.93 148.785 128.012 148.935C128.095 149.075 128.249 149.245 128.455 149.415C128.65 149.575 128.867 149.735 129.093 149.885C129.319 150.035 129.628 150.225 130.019 150.465C130.534 150.775 130.915 151.115 131.172 151.475C131.429 151.835 131.491 152.245 131.367 152.685C131.254 153.095 131.028 153.425 130.678 153.675C130.338 153.925 129.927 154.085 129.464 154.155C129 154.225 128.527 154.205 128.054 154.085C127.59 153.975 127.169 153.785 126.829 153.515Z" fill="white"/>
<path d="M132.798 155.105C132.664 155.065 132.561 154.985 132.489 154.865C132.417 154.745 132.438 154.585 132.438 154.485C132.438 154.415 132.417 154.305 132.448 154.225C132.572 153.795 132.767 153.165 133.004 152.335C133.241 151.515 133.405 150.955 133.487 150.665C133.518 150.555 133.57 150.365 133.642 150.085C133.714 149.805 133.786 149.555 133.858 149.325C133.93 149.095 134.023 148.875 134.105 148.685C134.146 148.595 134.208 148.525 134.301 148.475C134.393 148.425 134.486 148.395 134.599 148.395C134.712 148.345 134.846 148.335 134.98 148.365C135.505 148.485 136.266 148.695 137.234 148.965C138.211 149.235 138.87 149.435 139.22 149.535C139.364 149.575 139.477 149.665 139.549 149.785C139.621 149.905 139.642 150.035 139.59 150.175C139.549 150.305 139.457 150.405 139.333 150.465C139.199 150.525 139.065 150.535 138.911 150.495C138.541 150.385 137.913 150.195 137.028 149.955C136.143 149.705 135.134 149.335 134.98 149.405C134.949 149.415 134.856 149.735 134.753 150.135C134.65 150.535 134.568 150.815 134.527 150.975C134.486 151.135 134.455 151.215 134.414 151.365C134.764 151.435 135.124 151.525 135.515 151.635C135.896 151.745 136.338 151.875 136.822 152.015C137.306 152.165 137.666 152.275 137.903 152.345C138.047 152.385 138.16 152.475 138.222 152.595C138.283 152.715 138.304 152.845 138.263 152.975C138.222 153.105 138.129 153.205 138.005 153.265C137.872 153.325 137.738 153.335 137.594 153.295C137.357 153.225 136.987 153.115 136.503 152.965C136.019 152.815 135.587 152.695 135.206 152.585C134.825 152.475 134.465 152.385 134.105 152.315C133.837 153.225 133.652 153.875 133.529 154.265C135.186 154.745 136.472 155.125 137.367 155.385C137.511 155.425 137.614 155.505 137.686 155.625C137.758 155.745 137.779 155.875 137.728 156.005C137.686 156.135 137.604 156.235 137.47 156.305C137.347 156.375 137.213 156.385 137.069 156.345C136.194 156.095 134.743 155.645 132.798 155.105Z" fill="white"/>
<path d="M139.683 157.025C139.364 156.725 139.138 156.395 139.024 156.015C138.911 155.635 138.911 155.255 139.045 154.855C139.096 154.705 139.189 154.595 139.323 154.535C139.457 154.475 139.601 154.465 139.745 154.515C139.858 154.545 139.94 154.615 140.012 154.705C140.084 154.795 140.105 154.905 140.084 155.045C139.909 155.895 140.331 156.475 141.35 156.815C141.844 156.975 142.266 157.005 142.616 156.905C142.966 156.795 143.203 156.595 143.316 156.275C143.388 156.085 143.347 155.895 143.192 155.695C143.038 155.495 142.812 155.295 142.513 155.075C142.4 154.995 142.348 154.945 142.235 154.865C141.628 154.435 141.206 154.105 140.959 153.875C140.599 153.545 140.362 153.215 140.239 152.875C140.115 152.545 140.115 152.195 140.239 151.835C140.342 151.515 140.558 151.245 140.877 151.025C141.196 150.805 141.587 150.665 142.06 150.615C142.523 150.565 143.007 150.625 143.501 150.785C144.016 150.955 144.448 151.195 144.798 151.505C145.137 151.815 145.374 152.145 145.487 152.505C145.601 152.865 145.601 153.205 145.487 153.525C145.426 153.685 145.333 153.795 145.199 153.855C145.065 153.915 144.932 153.915 144.788 153.865C144.654 153.815 144.551 153.735 144.489 153.605C144.427 153.485 144.417 153.345 144.479 153.195C144.541 153.035 144.52 152.865 144.417 152.665C144.324 152.465 144.16 152.275 143.944 152.105C143.728 151.925 143.46 151.785 143.162 151.695C142.647 151.525 142.235 151.485 141.927 151.565C141.618 151.645 141.412 151.825 141.299 152.105C141.237 152.255 141.247 152.405 141.319 152.555C141.391 152.705 141.525 152.885 141.721 153.075C141.896 153.255 142.101 153.435 142.318 153.605C142.534 153.775 142.822 153.995 143.192 154.265C143.676 154.615 144.036 154.995 144.263 155.375C144.489 155.765 144.52 156.165 144.355 156.605C144.211 157.005 143.944 157.315 143.583 157.535C143.213 157.755 142.801 157.875 142.328 157.905C141.854 157.935 141.391 157.865 140.918 157.715C140.403 157.545 140.002 157.315 139.683 157.025Z" fill="white"/>
<path opacity="0.4" d="M31.7663 156.444C31.7663 156.444 15.3308 179.904 20.3016 180.034C25.2724 180.164 29.039 182.014 31.7663 172.704C31.7663 172.704 28.4216 173.774 31.7663 156.444Z" fill="#282A67"/>
<path opacity="0.45" d="M150.643 150.915C150.499 150.375 163.6 174.995 160.348 175.405C157.096 175.815 153.813 175.695 153.813 175.695C153.813 175.695 153.916 171.025 150.541 167.515C150.551 167.515 153.206 160.195 150.643 150.915Z" fill="#282A67"/>
<path d="M69.7766 102.563L72.4906 109.981C72.4906 109.981 76.5728 111.171 76.5728 108.159L73.6601 101.137C73.6712 101.126 70.251 101.491 69.7766 102.563Z" fill="white" stroke="#282A67" stroke-miterlimit="10"/>
<path d="M50.9434 86.1498C50.9434 86.1498 45.5153 86.0747 42.746 84.606C39.9658 83.1374 46.3427 46.9884 80.3348 67.0461C80.3348 67.0461 80.8203 74.7112 77.2346 76.6194C77.2346 76.6194 70.6591 72.1705 67.9781 74.5504C65.2971 76.9303 52.2894 81.733 52.2894 81.733C52.2894 81.733 51.0537 84.3702 50.9434 86.1498Z" fill="white" stroke="#282A67" stroke-miterlimit="10"/>
<path d="M83.6227 83.1694C83.6227 82.1403 82.7621 81.3041 81.703 81.3041C81.1844 81.3041 80.721 81.5078 80.379 81.8187C77.9628 76.5764 72.5678 72.9315 66.2791 72.9315C57.7507 72.9315 50.8331 79.6532 50.8331 87.94C50.8331 89.5587 51.1089 91.1132 51.5944 92.5819C50.7007 92.7427 50.0167 93.4931 50.0167 94.415C50.0167 95.4442 50.8773 96.2804 51.9364 96.2804C52.3998 96.2804 52.8301 96.1089 53.161 95.8408C55.8862 100.108 60.7296 102.948 66.2791 102.948C74.8074 102.948 81.725 96.2268 81.725 87.94C81.725 86.9323 81.6147 85.9567 81.4271 85.0133C81.5154 85.024 81.6037 85.0348 81.6919 85.0348C82.7621 85.0348 83.6227 84.1986 83.6227 83.1694Z" fill="white" stroke="#282A67" stroke-miterlimit="10"/>
<path d="M59.8875 87.94C59.8875 88.4378 59.4681 88.8658 58.9202 88.8658C58.3723 88.8658 57.9528 88.4378 57.9528 87.94C57.9528 87.4421 58.3723 87.0142 58.9202 87.0142C59.4681 87.0142 59.8875 87.4421 59.8875 87.94Z" fill="#282A67" stroke="#282A67"/>
<path d="M72.6414 83.1694C72.6414 83.6673 72.2219 84.0952 71.674 84.0952C71.1261 84.0952 70.7067 83.6673 70.7067 83.1694C70.7067 82.6716 71.1261 82.2437 71.674 82.2437C72.2219 82.2437 72.6414 82.6716 72.6414 83.1694Z" fill="#282A67" stroke="#282A67"/>
<path d="M67.478 89.3658C67.478 89.6979 67.1969 89.9915 66.8196 89.9915C66.4423 89.9915 66.1611 89.6979 66.1611 89.3658C66.1611 89.0337 66.4423 88.7402 66.8196 88.7402C67.1969 88.7402 67.478 89.0337 67.478 89.3658Z" fill="#282A67" stroke="#282A67"/>
<path d="M70.2179 95.8758C70.8904 95.6427 71.5366 95.348 72.1317 94.9715C72.8403 94.5609 73.4464 94.0212 73.9449 93.3989C73.9184 93.4384 73.8916 93.4782 73.8645 93.5185C73.8289 93.5713 73.7928 93.625 73.7563 93.6795L73.0177 94.4274C72.8539 94.5723 72.6861 94.6867 72.4931 94.8182C72.3998 94.8817 72.3007 94.9493 72.1933 95.0262C71.5709 95.3994 70.905 95.6798 70.2179 95.8758Z" fill="#282A67" stroke="#282A67"/>
<path d="M52.8079 81.7436C52.8079 81.7436 70.3059 77.6056 70.7472 74.2394C70.7472 74.2394 59.2841 70.2407 52.8079 81.7436Z" fill="#CE9D2E" stroke="#282A67" stroke-miterlimit="10"/>
<mask id="path-52-inside-1" fill="white">
<path d="M50.0167 76.6193C50.5242 74.7326 51.451 72.953 52.6535 71.3557C53.8561 69.7583 55.4669 68.4076 57.3646 67.5821C59.2512 66.7888 61.4136 66.4672 63.4326 66.8853L64.1939 66.9925L64.922 67.2176L66.3673 67.6679C67.2941 68.0752 68.1767 68.5362 69.0593 68.9972C68.0995 68.697 67.1838 68.3111 66.2349 68.0431L64.7896 67.7107L64.0725 67.5499L63.3443 67.4963C61.4136 67.2283 59.4387 67.5607 57.6955 68.3111C55.9303 69.0508 54.4188 70.2943 53.139 71.7416C52.4991 72.4599 51.9143 73.2424 51.4179 74.0679C50.8883 74.8719 50.4249 75.7403 50.0167 76.6193Z"/>
</mask>
<path d="M50.0167 76.6193C50.5242 74.7326 51.451 72.953 52.6535 71.3557C53.8561 69.7583 55.4669 68.4076 57.3646 67.5821C59.2512 66.7888 61.4136 66.4672 63.4326 66.8853L64.1939 66.9925L64.922 67.2176L66.3673 67.6679C67.2941 68.0752 68.1767 68.5362 69.0593 68.9972C68.0995 68.697 67.1838 68.3111 66.2349 68.0431L64.7896 67.7107L64.0725 67.5499L63.3443 67.4963C61.4136 67.2283 59.4387 67.5607 57.6955 68.3111C55.9303 69.0508 54.4188 70.2943 53.139 71.7416C52.4991 72.4599 51.9143 73.2424 51.4179 74.0679C50.8883 74.8719 50.4249 75.7403 50.0167 76.6193Z" fill="#282A67"/>
<path d="M50.0167 76.6193L49.051 76.3596L50.9237 77.0405L50.0167 76.6193ZM57.3646 67.5821L56.9769 66.6602L56.9657 66.6651L57.3646 67.5821ZM63.4326 66.8853L63.2298 67.8645L63.2613 67.871L63.2932 67.8755L63.4326 66.8853ZM64.1939 66.9925L64.4892 66.0371L64.4127 66.0134L64.3333 66.0023L64.1939 66.9925ZM64.922 67.2176L65.2195 66.2629L65.2174 66.2622L64.922 67.2176ZM66.3673 67.6679L66.7697 66.7524L66.7184 66.7298L66.6648 66.7131L66.3673 67.6679ZM69.0593 68.9972L68.7609 69.9516L69.5223 68.1108L69.0593 68.9972ZM66.2349 68.0431L66.5068 67.0807L66.4831 67.074L66.459 67.0685L66.2349 68.0431ZM64.7896 67.7107L65.0137 66.7362L65.0084 66.735L64.7896 67.7107ZM64.0725 67.5499L64.2913 66.5742L64.2194 66.558L64.1459 66.5526L64.0725 67.5499ZM63.3443 67.4963L63.2068 68.4868L63.2388 68.4913L63.2709 68.4936L63.3443 67.4963ZM57.6955 68.3111L58.082 69.2334L58.0909 69.2296L57.6955 68.3111ZM53.139 71.7416L53.8856 72.4068L53.8881 72.404L53.139 71.7416ZM51.4179 74.0679L52.253 74.618L52.2643 74.6009L52.2748 74.5833L51.4179 74.0679ZM50.9824 76.8791C51.4518 75.134 52.3146 73.4684 53.4524 71.9571L51.8546 70.7542C50.5873 72.4376 49.5966 74.3312 49.051 76.3596L50.9824 76.8791ZM53.4524 71.9571C54.5624 70.4828 56.0405 69.2486 57.7634 68.4991L56.9657 66.6651C54.8933 67.5666 53.1498 69.0339 51.8546 70.7542L53.4524 71.9571ZM57.7522 68.5039C59.4874 67.7743 61.4432 67.4945 63.2298 67.8645L63.6354 65.9061C61.384 65.4398 59.0149 65.8033 56.9769 66.6603L57.7522 68.5039ZM63.2932 67.8755L64.0544 67.9827L64.3333 66.0023L63.5721 65.895L63.2932 67.8755ZM63.8985 67.9479L64.6267 68.173L65.2174 66.2622L64.4892 66.0371L63.8985 67.9479ZM64.6246 68.1724L66.0699 68.6226L66.6648 66.7131L65.2195 66.2629L64.6246 68.1724ZM65.9649 68.5833C66.8559 68.975 67.7092 69.4202 68.5964 69.8836L69.5223 68.1108C68.6443 67.6522 67.7323 67.1755 66.7697 66.7524L65.9649 68.5833ZM69.3578 68.0428C68.9024 67.9004 68.4575 67.7376 67.9803 67.5667C67.5122 67.3989 67.0175 67.225 66.5068 67.0807L65.9631 69.0054C66.4012 69.1292 66.8388 69.2822 67.3057 69.4495C67.7636 69.6135 68.2564 69.7938 68.7609 69.9516L69.3578 68.0428ZM66.459 67.0685L65.0137 66.7362L64.5656 68.6853L66.0108 69.0176L66.459 67.0685ZM65.0084 66.735L64.2913 66.5742L63.8537 68.5257L64.5708 68.6865L65.0084 66.735ZM64.1459 66.5526L63.4178 66.499L63.2709 68.4936L63.9991 68.5472L64.1459 66.5526ZM63.4818 66.5058C61.3501 66.2099 59.1914 66.5784 57.3001 67.3926L58.0909 69.2296C59.6861 68.5429 61.4771 68.2467 63.2068 68.4868L63.4818 66.5058ZM57.3091 67.3888C55.3646 68.2036 53.7357 69.5572 52.3899 71.0791L53.8881 72.404C55.1018 71.0315 56.496 69.898 58.082 69.2334L57.3091 67.3888ZM52.3923 71.0764C51.7143 71.8374 51.0918 72.6698 50.5609 73.5525L52.2748 74.5833C52.7369 73.8151 53.2839 73.0823 53.8856 72.4068L52.3923 71.0764ZM50.5827 73.5178C50.0196 74.3729 49.533 75.2866 49.1097 76.1982L50.9237 77.0405C51.3168 76.194 51.757 75.371 52.253 74.618L50.5827 73.5178Z" fill="#282A67" mask="url(#path-52-inside-1)"/>
<path d="M68.8296 110.773C66.9507 110.117 64.2678 109.763 60.7764 110.674C61.3131 110.107 62.0883 109.429 63.0565 108.87C64.1286 108.251 65.4256 107.785 66.8935 107.762C68.3565 107.74 70.022 108.158 71.8399 109.358L72.0663 109.508L72.3151 109.4L76.3752 107.631L76.6034 107.531L76.6616 107.29L76.6616 107.289L76.6616 107.289L76.6617 107.289L76.6625 107.286L76.6666 107.269C76.6704 107.254 76.6765 107.231 76.6848 107.2C76.7014 107.138 76.7272 107.046 76.7628 106.929C76.8339 106.695 76.9439 106.362 77.098 105.97C77.4073 105.184 77.8877 104.181 78.5756 103.278C79.2638 102.376 80.1397 101.6 81.235 101.223C82.1797 100.897 83.3323 100.852 84.7398 101.336C84.5276 101.589 84.2529 101.921 83.9396 102.31C83.2063 103.22 82.2574 104.447 81.4034 105.709C80.556 106.96 79.7759 108.283 79.4091 109.374C79.2278 109.914 79.1244 110.462 79.2171 110.94C79.2652 111.188 79.3679 111.426 79.5456 111.625C79.7235 111.826 79.9545 111.963 80.2199 112.045C82.9786 112.9 85.2203 115.317 85.1304 117.954C85.1222 117.952 85.1138 117.95 85.1054 117.947C84.7395 117.84 84.178 117.632 83.4368 117.228C81.9543 116.422 79.75 114.834 76.9561 111.716L76.1174 110.781L76.0839 112.036L76.0839 112.036V112.036L76.0839 112.037L76.0838 112.038L76.0835 112.049C76.0831 112.058 76.0824 112.074 76.0814 112.095C76.0792 112.137 76.0754 112.2 76.0689 112.283C76.0559 112.45 76.032 112.694 75.9889 112.998C75.9025 113.606 75.7396 114.451 75.4339 115.39C74.8846 117.079 73.8854 119.042 72.0719 120.513C72.0703 120.499 72.0687 120.485 72.067 120.471C72.004 119.924 71.9285 119.164 71.8781 118.312C71.7763 116.589 71.7825 114.556 72.1677 113.135L72.2448 112.851L72.0336 112.646C72.0408 112.653 71.9626 112.571 71.8238 112.45C71.6855 112.329 71.4829 112.163 71.2156 111.976C70.681 111.603 69.8868 111.141 68.8296 110.773Z" fill="#282A67" stroke="#282A67"/>
<path d="M108.87 102.552L106.156 109.97C106.156 109.97 102.074 111.16 102.074 108.148L104.986 101.126C104.986 101.115 108.406 101.491 108.87 102.552Z" fill="white" stroke="#282A67" stroke-miterlimit="10"/>
<path d="M127.703 86.1498C127.703 86.1498 133.131 86.0747 135.9 84.606C138.68 83.1373 132.303 46.9884 98.3113 67.0461C98.3113 67.0461 97.8259 74.7112 101.412 76.6194C101.412 76.6194 107.987 72.1705 110.668 74.5504C113.349 76.9303 126.357 81.733 126.357 81.733C126.357 81.733 127.592 84.3595 127.703 86.1498Z" fill="white" stroke="#282A67" stroke-miterlimit="10"/>
<path d="M95.0346 83.1694C95.0346 82.1403 95.8952 81.3041 96.9544 81.3041C97.4729 81.3041 97.9363 81.5078 98.2783 81.8187C100.694 76.5764 106.09 72.9315 112.378 72.9315C120.907 72.9315 127.824 79.6532 127.824 87.94C127.824 89.5588 127.548 91.1132 127.063 92.5819C127.957 92.7427 128.641 93.4931 128.641 94.4151C128.641 95.4442 127.78 96.2804 126.721 96.2804C126.258 96.2804 125.827 96.1089 125.496 95.8409C122.771 100.108 117.928 102.948 112.378 102.948C103.85 102.948 96.9323 96.2268 96.9323 87.94C96.9323 86.9323 97.0426 85.9567 97.2302 85.0133C97.1419 85.024 97.0536 85.0348 96.9654 85.0348C95.8952 85.0348 95.0346 84.1986 95.0346 83.1694Z" fill="white" stroke="#282A67" stroke-miterlimit="10"/>
<path d="M120.693 87.9292C120.693 88.4271 120.274 88.855 119.726 88.855C119.178 88.855 118.759 88.4271 118.759 87.9292C118.759 87.4314 119.178 87.0034 119.726 87.0034C120.274 87.0034 120.693 87.4314 120.693 87.9292Z" fill="#282A67" stroke="#282A67"/>
<path d="M107.939 83.1695C107.939 83.6673 107.52 84.0953 106.972 84.0953C106.424 84.0953 106.005 83.6673 106.005 83.1695C106.005 82.6716 106.424 82.2437 106.972 82.2437C107.52 82.2437 107.939 82.6716 107.939 83.1695Z" fill="#282A67" stroke="#282A67"/>
<path d="M112.496 89.3657C112.496 89.6978 112.215 89.9913 111.838 89.9913C111.46 89.9913 111.179 89.6978 111.179 89.3657C111.179 89.0336 111.46 88.7401 111.838 88.7401C112.215 88.7401 112.496 89.0336 112.496 89.3657Z" fill="#282A67" stroke="#282A67"/>
<path d="M104.793 93.5184C104.772 93.4875 104.751 93.4569 104.731 93.4265C105.227 94.039 105.827 94.5671 106.527 94.9724C107.144 95.3568 107.816 95.6564 108.515 95.8938C107.797 95.6978 107.104 95.4134 106.465 95.0268C106.367 94.9568 106.274 94.8924 106.185 94.8307C105.986 94.6923 105.806 94.5676 105.636 94.4235L104.901 93.6795C104.864 93.625 104.828 93.5713 104.793 93.5184Z" fill="#282A67" stroke="#282A67"/>
<path d="M125.849 81.7329C125.849 81.7329 108.351 77.5948 107.91 74.2286C107.91 74.2286 119.373 70.2407 125.849 81.7329Z" fill="#449BD1" stroke="#282A67" stroke-miterlimit="10"/>
<mask id="path-63-inside-2" fill="white">
<path d="M128.63 76.6193C128.221 75.7296 127.758 74.8719 127.217 74.0679C126.71 73.2424 126.125 72.4599 125.496 71.7416C124.228 70.3051 122.705 69.0615 120.94 68.3111C119.197 67.5607 117.233 67.2391 115.291 67.4964L114.563 67.55L113.846 67.7108L112.4 68.0431C111.452 68.3111 110.536 68.7077 109.576 68.9972C110.459 68.5362 111.341 68.0645 112.268 67.6679L113.713 67.2176L114.441 66.9925L115.203 66.8853C117.211 66.4672 119.373 66.7781 121.271 67.5821C123.168 68.4076 124.779 69.7691 125.982 71.3557C127.195 72.9423 128.133 74.7218 128.63 76.6193Z"/>
</mask>
<path d="M128.63 76.6193C128.221 75.7296 127.758 74.8719 127.217 74.0679C126.71 73.2424 126.125 72.4599 125.496 71.7416C124.228 70.3051 122.705 69.0615 120.94 68.3111C119.197 67.5607 117.233 67.2391 115.291 67.4964L114.563 67.55L113.846 67.7108L112.4 68.0431C111.452 68.3111 110.536 68.7077 109.576 68.9972C110.459 68.5362 111.341 68.0645 112.268 67.6679L113.713 67.2176L114.441 66.9925L115.203 66.8853C117.211 66.4672 119.373 66.7781 121.271 67.5821C123.168 68.4076 124.779 69.7691 125.982 71.3557C127.195 72.9423 128.133 74.7218 128.63 76.6193Z" fill="#282A67"/>
<path d="M128.63 76.6193L127.721 77.0363L129.597 76.3662L128.63 76.6193ZM127.217 74.0679L126.366 74.5917L126.376 74.609L126.388 74.6259L127.217 74.0679ZM125.496 71.7416L126.249 71.0829L126.246 71.0796L125.496 71.7416ZM120.94 68.3111L120.544 69.2296L120.549 69.2314L120.94 68.3111ZM115.291 67.4964L115.364 68.4937L115.393 68.4915L115.422 68.4877L115.291 67.4964ZM114.563 67.55L114.489 66.5527L114.416 66.5581L114.344 66.5742L114.563 67.55ZM113.846 67.7108L113.627 66.735L113.622 66.7362L113.846 67.7108ZM112.4 68.0431L112.176 67.0685L112.152 67.074L112.129 67.0807L112.4 68.0431ZM109.576 68.9972L109.113 68.1108L109.865 69.9546L109.576 68.9972ZM112.268 67.6679L111.971 66.7131L111.922 66.7284L111.874 66.7485L112.268 67.6679ZM113.713 67.2176L113.418 66.2622L113.416 66.2629L113.713 67.2176ZM114.441 66.9925L114.302 66.0023L114.223 66.0134L114.146 66.0371L114.441 66.9925ZM115.203 66.8853L115.342 67.8755L115.375 67.871L115.407 67.8643L115.203 66.8853ZM121.271 67.5821L121.67 66.6651L121.661 66.6614L121.271 67.5821ZM125.982 71.3557L125.185 71.9597L125.187 71.9632L125.982 71.3557ZM129.539 76.2024C129.113 75.2738 128.624 74.3672 128.047 73.5099L126.388 74.6259C126.892 75.3766 127.33 76.1853 127.721 77.0363L129.539 76.2024ZM128.069 73.5442C127.53 72.6677 126.912 71.8402 126.249 71.0829L124.744 72.4003C125.339 73.0795 125.889 73.8172 126.366 74.5917L128.069 73.5442ZM126.246 71.0796C124.908 69.5651 123.27 68.2149 121.331 67.3908L120.549 69.2314C122.14 69.9081 123.547 71.0451 124.747 72.4036L126.246 71.0796ZM121.335 67.3926C119.44 66.5768 117.295 66.2221 115.16 66.505L115.422 68.4877C117.171 68.256 118.953 68.5445 120.544 69.2296L121.335 67.3926ZM115.218 66.499L114.489 66.5527L114.636 68.5473L115.364 68.4937L115.218 66.499ZM114.344 66.5742L113.627 66.735L114.064 68.6865L114.782 68.5257L114.344 66.5742ZM113.622 66.7362L112.176 67.0685L112.624 69.0177L114.07 68.6853L113.622 66.7362ZM112.129 67.0807C111.615 67.2257 111.118 67.4034 110.653 67.5716C110.177 67.7433 109.736 67.9045 109.287 68.0398L109.865 69.9546C110.376 69.8005 110.873 69.6186 111.332 69.4526C111.801 69.2831 112.236 69.1285 112.672 69.0054L112.129 67.0807ZM110.039 69.8836C110.936 69.4152 111.778 68.9651 112.661 68.5872L111.874 66.7485C110.904 67.1639 109.981 67.6573 109.113 68.1108L110.039 69.8836ZM112.565 68.6226L114.011 68.1724L113.416 66.2629L111.971 66.7131L112.565 68.6226ZM114.009 68.173L114.737 67.9479L114.146 66.0371L113.418 66.2622L114.009 68.173ZM114.581 67.9827L115.342 67.8755L115.063 65.8951L114.302 66.0023L114.581 67.9827ZM115.407 67.8643C117.184 67.4943 119.138 67.7646 120.881 68.5029L121.661 66.6614C119.608 65.7915 117.238 65.4401 114.999 65.9063L115.407 67.8643ZM120.872 68.4991C122.593 69.2477 124.072 70.4918 125.185 71.9597L126.779 70.7516C125.486 69.0463 123.744 67.5675 121.67 66.6651L120.872 68.4991ZM125.187 71.9632C126.335 73.4629 127.205 75.1242 127.662 76.8725L129.597 76.3662C129.062 74.3195 128.056 72.4217 126.776 70.7481L125.187 71.9632Z" fill="#282A67" mask="url(#path-63-inside-2)"/>
<path d="M106.579 120.46C106.578 120.474 106.576 120.488 106.574 120.502C104.761 119.032 103.762 117.068 103.212 115.379C102.907 114.44 102.744 113.595 102.657 112.987C102.614 112.683 102.59 112.439 102.577 112.273C102.571 112.19 102.567 112.126 102.565 112.084C102.564 112.063 102.563 112.048 102.563 112.038L102.562 112.027L102.562 112.026L102.562 112.026L102.562 112.026L102.562 112.025L102.529 110.77L101.69 111.706C98.8963 114.823 96.692 116.411 95.2094 117.218C94.4683 117.621 93.9068 117.829 93.5409 117.936C93.5325 117.939 93.5241 117.941 93.5159 117.944C93.426 115.306 95.6677 112.89 98.4264 112.034C98.6918 111.952 98.9228 111.815 99.1007 111.615C99.2784 111.415 99.3811 111.178 99.4292 110.929C99.5219 110.451 99.4185 109.903 99.2372 109.364C98.8704 108.272 98.0903 106.949 97.2429 105.698C96.3889 104.437 95.44 103.209 94.7067 102.299C94.3934 101.91 94.1187 101.578 93.9065 101.325C95.314 100.841 96.4666 100.886 97.4113 101.212C98.5066 101.59 99.3825 102.365 100.071 103.268C100.759 104.17 101.239 105.173 101.548 105.96C101.702 106.351 101.812 106.684 101.884 106.919C101.919 107.036 101.945 107.128 101.962 107.189C101.97 107.22 101.976 107.244 101.98 107.259L101.984 107.275L101.985 107.278L101.985 107.278L101.985 107.279L101.985 107.279L102.043 107.52L102.271 107.62L106.331 109.389L106.58 109.497L106.806 109.348C108.624 108.147 110.29 107.729 111.753 107.751C113.221 107.774 114.518 108.241 115.59 108.86C116.558 109.418 117.333 110.096 117.87 110.663C114.378 109.752 111.696 110.106 109.817 110.762C108.76 111.131 107.965 111.592 107.431 111.966C107.163 112.153 106.961 112.318 106.822 112.439C106.684 112.56 106.606 112.642 106.613 112.635L106.402 112.84L106.479 113.124C106.864 114.546 106.87 116.578 106.768 118.301C106.718 119.153 106.642 119.913 106.579 120.46Z" fill="#282A67" stroke="#282A67"/>
</svg>
