<svg width="24" height="24" viewBox="0 0 24 24" fill="none" xmlns="http://www.w3.org/2000/svg">
<path d="M14.2477 14.3673C14.2477 13.6629 13.6747 13.0899 12.9704 13.0899C12.9434 13.0899 12.9166 13.091 12.8902 13.0927V13.2544C12.9168 13.2526 12.9433 13.2503 12.9704 13.2503C13.5862 13.2503 14.0871 13.7514 14.0871 14.3673C14.0871 14.9831 13.5862 15.4841 12.9704 15.4841C12.9523 15.4841 12.9347 15.4823 12.9169 15.4814V15.5417V15.6432V15.9607H12.5203V16.1747H13.4205V15.9607H13.0773V15.6397C13.7318 15.5851 14.2477 15.0355 14.2477 14.3673Z" fill="#1B2F9A"/>
<path d="M17.4875 5.33946L17.5094 5.51678L17.2437 5.57306L17.2078 5.95196H17.5282L17.9532 5.91135L18.1719 5.64965L17.9391 5.55934L17.811 5.41208L17.6187 5.10076L17.5282 4.66174L17.1657 4.73436L17.0657 4.88982V5.06404L17.2391 5.1832L17.4875 5.33946Z" fill="#1B2F9A"/>
<path d="M17.1797 5.48479L17.1984 5.24729L16.9876 5.15625L16.6914 5.22504L16.4703 5.57698V5.80586H16.7274L17.1797 5.48479Z" fill="#1B2F9A"/>
<path d="M11.0848 6.49533L11.0192 6.6633H10.7031V6.82656H10.7785C10.7785 6.82656 10.7832 6.86092 10.7898 6.90664L10.9832 6.89064L11.1031 6.81526L11.1343 6.6641L11.2913 6.65039L11.3527 6.52343L11.2089 6.49371L11.0848 6.49533Z" fill="#1B2F9A"/>
<path d="M10.2702 6.79136L10.2585 6.95039L10.4879 6.93122L10.5113 6.77146L10.3738 6.66327L10.2702 6.79136Z" fill="#1B2F9A"/>
<path d="M23.9961 11.8769C23.9929 11.5258 23.9751 11.1778 23.9422 10.8344C23.8304 9.69061 23.5578 8.59452 23.1469 7.56722C23.1172 7.49144 23.0891 7.4137 23.057 7.33792C22.511 6.04804 21.7437 4.87382 20.8062 3.86016C20.7453 3.79379 20.6828 3.72891 20.6203 3.66409C20.4422 3.48012 20.2617 3.29998 20.0719 3.12811C17.939 1.18552 15.1051 0 12 0C8.8688 0 6.01449 1.20744 3.87543 3.17854C3.37697 3.63793 2.91919 4.14029 2.50317 4.677C0.935925 6.70505 0 9.24494 0 12C0 18.6164 5.38323 24 12 24C16.6547 24 20.6953 21.3344 22.6844 17.4508C23.1093 16.6219 23.4406 15.7368 23.664 14.8086C23.7203 14.5742 23.7702 14.3368 23.8125 14.0969C23.9336 13.4153 23.9999 12.7144 23.9999 11.9993C23.9984 11.9594 23.9961 11.9184 23.9961 11.8769ZM21.7375 7.08086L21.8062 7.00273C21.8976 7.18004 21.9843 7.35937 22.0648 7.54254L21.95 7.53783L21.7367 7.56715V7.0808H21.7375V7.08086ZM20.0031 4.98631L20.0046 4.45033C20.1937 4.65038 20.375 4.8562 20.5484 5.06989L20.3328 5.39137L19.5765 5.38391L19.5297 5.22649L20.0031 4.98631ZM5.52814 3.65548V3.63517H5.76799L5.78984 3.55274H6.18239V3.7242L6.06869 3.87455H5.52726V3.65541H5.52814V3.65548ZM5.91215 4.19065C5.91215 4.19065 6.15274 4.14963 6.17385 4.14963C6.19376 4.14963 6.17385 4.38988 6.17385 4.38988L5.63048 4.42424L5.52733 4.30005L5.91215 4.19065ZM22.5016 8.95352H21.6234L21.0875 8.55545L20.525 8.60979V8.95352H20.3469L20.1554 8.81682L19.1796 8.56998V7.93791L17.9438 8.0336L17.5601 8.23949H17.0703L16.8289 8.21528L16.2336 8.54651V9.16876L15.0167 10.0473L15.1176 10.4227H15.3648L15.3 10.7801L15.1265 10.8441L15.1176 11.7777L16.1687 12.9761H16.6272L16.6546 12.9034H17.478L17.7155 12.6839H18.1827L18.439 12.9402L19.1334 13.012L19.0421 13.9371L19.8155 15.3007L19.4078 16.0788L19.4351 16.4445L19.7562 16.764V17.6445L20.1765 18.2102V18.9429H20.539C18.5187 21.4249 15.4406 23.0132 11.9976 23.0132C5.92499 23.0132 0.984742 18.0741 0.984742 12.0007C0.984742 10.4722 1.29842 9.01518 1.86405 7.69134V7.34801L2.25775 6.86993C2.39445 6.61132 2.54096 6.36011 2.69763 6.11448L2.71445 6.31445L2.25781 6.86993C2.11607 7.13788 1.9832 7.41135 1.86412 7.69141V8.31756L2.32075 8.53784V9.40894L2.76017 10.1577L3.11762 10.2121L3.16334 9.95541L2.74343 9.30579L2.66025 8.67454H2.90749L3.01219 9.32496L3.62078 10.2121L3.46411 10.4992L3.84967 11.0906L4.81061 11.3281V11.173L5.19462 11.2273L5.15872 11.5015L5.46022 11.557L5.92741 11.684L6.58637 12.4351L7.42736 12.4984L7.51053 13.1847L6.93361 13.5871L6.90738 14.2L6.8242 14.5757L7.65705 15.618L7.72073 15.9757C7.72073 15.9757 8.02264 16.057 8.06016 16.057C8.09613 16.057 8.73674 16.5429 8.73674 16.5429V18.4273L8.96488 18.4921L8.81063 19.3609L9.19458 19.8742L9.12277 20.7367L9.63131 21.6289L10.2833 22.1984L10.9376 22.2117L11.0016 22L10.52 21.5946L10.5481 21.3938L10.6336 21.1461L10.652 20.8945L10.3266 20.8851L10.1625 20.679L10.4329 20.418L10.4696 20.2219L10.1673 20.1352L10.1848 19.9524L10.6153 19.8867L11.2696 19.5726L11.4891 19.1687L12.1747 18.2906L12.0192 17.6039L12.2298 17.2382L12.8618 17.2569L13.2872 16.9193L13.4251 15.5952L13.8985 14.9983L13.9817 14.6147L13.552 14.4772L13.268 14.0104L12.2984 14.0007L11.5289 13.7081L11.493 13.1593L11.2368 12.7105L10.5418 12.7007L10.1387 12.0699L9.78246 11.896L9.76411 12.0882L9.11376 12.1265L8.87626 11.7953L8.19854 11.6577L7.64031 12.3035L6.76181 12.1535L6.69773 11.1633L6.05712 11.0535L6.31297 10.568L6.23955 10.2891L5.39695 10.8519L4.8673 10.7871L4.67788 10.373L4.79467 9.94573L5.08643 9.40746L5.75871 9.06642H7.05793L7.05363 9.46253L7.52082 9.68006L7.4833 9.00348L7.81997 8.66479L8.49931 8.21831L8.54658 7.90503L9.22356 7.19995L9.94351 6.80074L9.88023 6.74876L10.3681 6.28977L10.5467 6.33704L10.6283 6.43938L10.8139 6.23349L10.8596 6.21359L10.6565 6.18468L10.4491 6.11831V5.91908L10.5588 5.82965H10.7995L10.9108 5.87846L11.0061 6.07064L11.1229 6.05268V6.03628L11.1565 6.04724L11.4941 5.99533L11.5421 5.82971L11.7339 5.87853V6.05786L11.5546 6.1801H11.5558L11.5812 6.37699L12.1941 6.56486C12.1941 6.56486 12.1941 6.56721 12.1956 6.57225L12.3354 6.56015L12.3452 6.29529L11.8605 6.0746L11.8338 5.94725L12.2354 5.81055L12.2538 5.4258L11.8338 5.16995L11.8061 4.51993L11.2292 4.80355H11.0178L11.0741 4.30899L10.2882 4.12422L9.96435 4.36991V5.11757L9.38117 5.30275L9.14677 5.78984L8.89408 5.83045V5.20666L8.34526 5.13048L8.06984 4.95114L7.95963 4.54723L8.94209 3.97299L9.42219 3.82647L9.4706 4.1495L9.73896 4.13504L9.75967 3.97292L10.0398 3.93265L10.0445 3.87603L9.92455 3.82641L9.89718 3.65535L10.2413 3.62643L10.4492 3.41039L10.4613 3.39438L10.4636 3.39519L10.5269 3.32956L11.2499 3.23852L11.5691 3.50963L10.7308 3.95611L11.7979 4.20807L11.9355 3.85102H12.4026L12.5667 3.54003L12.237 3.45759V3.06383L11.2043 2.60639L10.4902 2.68883L10.0867 2.89895L10.114 3.41187L9.6933 3.34779L9.62848 3.06457L10.0324 2.69817L9.29961 2.6622L9.08948 2.72628L8.9981 2.97352L9.27271 3.01965L9.21805 3.29426L8.75166 3.32156L8.67824 3.50479L8.00078 3.52342C8.00078 3.52342 7.98243 3.13941 7.95351 3.13941C7.92736 3.13941 8.48478 3.12966 8.48478 3.12966L8.88789 2.7363L8.66795 2.62656L8.37619 2.91052L7.89058 2.88322L7.59452 2.4785H6.97227L6.32266 2.9633H6.9176L6.97113 3.13793L6.816 3.28397L7.47543 3.30273L7.57542 3.54023L6.83362 3.51286L6.79691 3.32963L6.33126 3.22884L6.08321 3.09214L5.52814 3.09678C7.34653 1.7722 9.58168 0.988238 11.9985 0.988238C14.7824 0.988238 17.3282 2.02886 19.2688 3.7394L19.1391 3.97299L18.6305 4.17216L18.4157 4.40495L18.4657 4.67525L18.7274 4.71197L18.886 5.10647L19.3368 4.92405L19.4126 5.45256H19.2751L18.904 5.39749L18.493 5.46621L18.0946 6.02948L17.5259 6.11818L17.4438 6.60567L17.6844 6.66229L17.6141 6.97597L17.0484 6.86233L16.5305 6.97597L16.4203 7.26463L16.5094 7.87047L16.814 8.01269L17.3257 8.00959L17.6702 7.97833L17.7765 7.70412L18.3156 7.00333L18.6696 7.07602L19.0187 6.75999L19.0844 7.0073L19.9437 7.58698L19.839 7.72873L19.4515 7.70802L19.6014 7.91895L19.8405 7.97207L20.1202 7.85528L20.114 7.51894L20.239 7.45687L20.139 7.35097L19.5655 7.03104L19.414 6.60648H19.8913L20.0421 6.75764L20.4546 7.11112L20.471 7.53924L20.8968 7.99198L21.0547 7.37128L21.35 7.2103L21.4039 7.7181L21.6922 8.03414L22.2664 8.02479C22.3781 8.31036 22.4781 8.60057 22.5641 8.89744L22.5016 8.95352ZM6.54415 5.45269L6.83127 5.31525L7.09223 5.37772L7.0032 5.72811L6.72193 5.8168L6.54415 5.45269ZM8.07381 6.27693V6.50353H7.41599L7.16794 6.43441L7.22967 6.277L7.5457 6.14655H7.97853V6.277H8.07381V6.27693ZM8.377 6.59296V6.8121L8.21138 6.91834L8.0067 6.957C8.0067 6.957 8.0067 6.62732 8.0067 6.5929H8.377V6.59296ZM8.19141 6.50353V6.24176L8.41754 6.44799L8.19141 6.50353ZM8.29449 7.03124V7.24493L8.13668 7.40274H7.78629L7.84095 7.16249L8.00657 7.14804L8.04019 7.0656L8.29449 7.03124ZM7.42272 6.59296H7.78635L7.31916 7.24493L7.12739 7.14178L7.16881 6.86717L7.42272 6.59296ZM8.91136 6.957V7.16989H8.56097L8.46569 7.03124V6.83281H8.49299L8.91136 6.957ZM8.58988 6.6633L8.68906 6.5586L8.85703 6.6633L8.72262 6.77465L8.58988 6.6633ZM22.6797 9.50974L22.7141 9.46872C22.7297 9.53125 22.7437 9.59372 22.7586 9.65625L22.6797 9.50974Z" fill="#1B2F9A"/>
<path d="M1.86487 7.34727V7.6906C1.98395 7.40973 2.11682 7.13714 2.25856 6.86871L1.86487 7.34727Z" fill="#1B2F9A"/>
</svg>
